<?xml version="1.0" encoding="utf-8"?>
<!-- Generator: Adobe Illustrator 21.0.0, SVG Export Plug-In . SVG Version: 6.00 Build 0)  -->
<svg version="1.1" id="Layer_1" xmlns="http://www.w3.org/2000/svg" xmlns:xlink="http://www.w3.org/1999/xlink" x="0px" y="0px"
	 viewBox="0 0 504 576" style="enable-background:new 0 0 504 576;" xml:space="preserve">
<style type="text/css">
	.st0{fill:#F33E37;}
	.st1{fill:#FFFFFF;}
</style>
<circle class="st0" cx="252" cy="289" r="243.5"/>
<g>
	<g>
		<path class="st1" d="M193.3,246.8c-32.1,0-58.3,26.1-58.3,58.3c0,19.9,9.5,41.4,28.2,63.8c2.8,3.3,5.6,6.4,8.2,9.2
			c-12.1,3.3-19.3,9.2-19.3,16.1c0,12.2,21.2,18.9,41.2,18.9c20,0,41.2-6.6,41.2-18.9c0-6.9-7.3-12.8-19.3-16.1
			c4.8-5.1,10-11.1,14.9-17.8c1.1-1.5,0.8-3.7-0.7-4.9c-1.5-1.1-3.7-0.8-4.9,0.7c-5.9,8.1-12.4,15.2-18,20.8
			c-0.6,0.3-1.2,0.9-1.5,1.5c-5,4.9-9.3,8.6-11.7,10.6c-2.4-2-6.5-5.6-11.5-10.5c-0.4-0.8-1-1.4-1.7-1.7c-15.8-15.9-38-43.3-38-71.8
			c0-28.3,23-51.3,51.3-51.3s51.3,23,51.3,51.3c0,12.4-4.2,25.7-12.5,39.7c-1,1.7-0.4,3.8,1.2,4.8c1.7,1,3.8,0.4,4.8-1.2
			c9-15.1,13.5-29.6,13.5-43.2C251.5,272.9,225.4,246.8,193.3,246.8z M191.1,396.3c0.6,0.5,1.4,0.7,2.1,0.7c0.8,0,1.5-0.2,2.1-0.7
			c0.4-0.3,6.3-4.9,14-12.5c11.8,2.4,18.1,7,18.1,10.3c0,2.5-3.4,5.4-8.9,7.6c-6.7,2.7-15.7,4.2-25.3,4.2c-20.9,0-34.2-7-34.2-11.9
			c0-3.3,6.3-7.9,18.1-10.3C184.9,391.5,190.8,396,191.1,396.3z"/>
	</g>
</g>
<g>
	<g>
		<path class="st1" d="M193.3,279.7c-5.5,0-10.8,1.7-15.2,5c-1.5,1.2-1.9,3.3-0.7,4.9c1.2,1.5,3.3,1.9,4.9,0.7c3.2-2.4,7-3.6,11-3.6
			c10.1,0,18.4,8.2,18.4,18.4c0,10.1-8.2,18.4-18.4,18.4s-18.4-8.2-18.4-18.4c0-1.7,0.2-3.4,0.7-5.1c0.5-1.8-0.5-3.8-2.4-4.3
			c-1.8-0.5-3.8,0.5-4.3,2.4c-0.7,2.3-1,4.6-1,7c0,14,11.4,25.3,25.3,25.3c14,0,25.3-11.4,25.3-25.3
			C218.6,291.1,207.2,279.7,193.3,279.7z"/>
	</g>
</g>
<g>
	<g>
		<path class="st1" d="M345.1,276.6c1.8-1.9,3.6-4,5.4-6.1c14.5-17.3,21.9-34,21.9-49.5c0-25.1-20.5-45.6-45.6-45.6
			c-18.4,0-34.9,10.9-42,27.8c-0.8,1.8,0.1,3.8,1.9,4.6c1.8,0.7,3.8-0.1,4.6-1.9c6.1-14.3,20-23.6,35.6-23.6
			c21.3,0,38.6,17.3,38.6,38.6c0,28.8-30.2,56.4-38.6,63.5c-1.8-1.6-4.8-4.1-8.2-7.5c-0.3-0.7-0.9-1.2-1.5-1.5
			c-12-12.1-28.9-32.9-28.9-54.5c0-1.9-1.6-3.5-3.5-3.5c-1.9,0-3.5,1.6-3.5,3.5c0,15.5,7.4,32.2,21.9,49.5c1.8,2.2,3.7,4.2,5.4,6.1
			c-9,2.7-14.2,7.3-14.2,12.8c0,4.7,3.8,8.8,10.7,11.6c5.9,2.4,13.6,3.7,21.8,3.7c8.2,0,15.9-1.3,21.8-3.7
			c6.9-2.8,10.7-6.9,10.7-11.6C359.3,283.9,354.1,279.3,345.1,276.6z M326.8,297.8c-16.5,0-25.5-5.5-25.5-8.3
			c0-1.8,4.1-5.2,12.8-7.1c5.9,5.7,10.2,9.1,10.5,9.3c0.6,0.5,1.4,0.7,2.1,0.7c0.8,0,1.5-0.2,2.1-0.7c0.3-0.2,4.6-3.6,10.5-9.3
			c3.9,0.8,7.3,2,9.6,3.5c2,1.2,3.2,2.6,3.2,3.6C352.3,292.3,343.3,297.8,326.8,297.8z"/>
	</g>
</g>
<g>
	<g>
		<path class="st1" d="M326.9,200.7c-11.2,0-20.3,9.1-20.3,20.3c0,11.2,9.1,20.3,20.3,20.3s20.3-9.1,20.3-20.3
			S338,200.7,326.9,200.7z M326.9,234.3c-7.3,0-13.3-6-13.3-13.3s6-13.3,13.3-13.3c7.3,0,13.3,6,13.3,13.3
			C340.2,228.3,334.2,234.3,326.9,234.3z"/>
	</g>
</g>
<g>
	<g>
		<path class="st1" d="M281.6,286h-1.6c-1.2,0-2.3,0.1-3.5,0.2c-1.9,0.3-3.2,2-3,3.9c0.2,1.8,1.7,3,3.5,3c0.2,0,0.3,0,0.5,0
			c0.8-0.1,1.7-0.2,2.5-0.2h1.6v0c1.9,0,3.5-1.6,3.5-3.5C285.1,287.5,283.6,286,281.6,286z"/>
	</g>
</g>
<g>
	<g>
		<path class="st1" d="M270.1,390.5C270.1,390.5,270.1,390.5,270.1,390.5l-4.6,0c-1.9,0-3.5,1.6-3.5,3.5c0,1.9,1.6,3.5,3.5,3.5
			c0,0,0,0,0,0l4.6,0c1.9,0,3.5-1.6,3.5-3.5C273.6,392.1,272,390.5,270.1,390.5z"/>
	</g>
</g>
<g>
	<g>
		<path class="st1" d="M285.8,331.1h-4.6c-1.9,0-3.5,1.6-3.5,3.5c0,1.9,1.6,3.5,3.5,3.5h4.6c1.9,0,3.5-1.6,3.5-3.5
			C289.3,332.7,287.7,331.1,285.8,331.1z"/>
	</g>
</g>
<g>
	<g>
		<path class="st1" d="M267.3,293.1c-1.3-1.4-3.5-1.5-4.9-0.2c-1.3,1.2-2.5,2.5-3.5,4c-1.1,1.6-0.8,3.7,0.8,4.9
			c0.6,0.4,1.3,0.7,2,0.7c1.1,0,2.2-0.5,2.8-1.5c0.8-1.1,1.6-2,2.6-2.9C268.5,296.7,268.6,294.5,267.3,293.1z"/>
	</g>
</g>
<g>
	<g>
		<path class="st1" d="M288.5,390.4C288.5,390.4,288.5,390.4,288.5,390.4l-4.6,0c-1.9,0-3.5,1.6-3.5,3.5c0,1.9,1.6,3.5,3.5,3.5
			c0,0,0,0,0,0l4.6,0c1.9,0,3.5-1.6,3.5-3.5C292,392,290.5,390.4,288.5,390.4z"/>
	</g>
</g>
<g>
	<g>
		<path class="st1" d="M251.7,390.6C251.7,390.6,251.7,390.6,251.7,390.6l-4.6,0c-1.9,0-3.5,1.6-3.5,3.5c0,1.9,1.6,3.5,3.5,3.5
			c0,0,0,0,0,0l4.6,0c1.9,0,3.5-1.6,3.5-3.5C255.2,392.1,253.6,390.6,251.7,390.6z"/>
	</g>
</g>
<g>
	<g>
		<path class="st1" d="M269.9,328.2c-1.1-0.7-2.1-1.5-3.1-2.4c-1.4-1.3-3.6-1.3-4.9,0.1c-1.3,1.4-1.3,3.6,0.1,4.9
			c1.3,1.2,2.7,2.3,4.2,3.3c0.6,0.4,1.2,0.5,1.9,0.5c1.2,0,2.3-0.6,3-1.6C272,331.3,271.5,329.2,269.9,328.2z"/>
	</g>
</g>
<g>
	<g>
		<path class="st1" d="M261.3,315.7c-0.2-1.2-0.4-2.4-0.4-3.7l0-0.2c0-1.9-1.5-3.5-3.4-3.5c0,0,0,0,0,0c-1.9,0-3.5,1.5-3.5,3.4
			l0,0.3c0,1.7,0.2,3.4,0.5,5c0.3,1.7,1.8,2.8,3.4,2.8c0.2,0,0.4,0,0.7-0.1C260.5,319.4,261.7,317.6,261.3,315.7z"/>
	</g>
</g>
<g>
	<g>
		<path class="st1" d="M304.2,331.1h-4.6c-1.9,0-3.5,1.6-3.5,3.5c0,1.9,1.6,3.5,3.5,3.5h4.6c1.9,0,3.5-1.6,3.5-3.5
			C307.7,332.7,306.1,331.1,304.2,331.1z"/>
	</g>
</g>
<g>
	<g>
		<path class="st1" d="M360.1,338.2c-1.3-1.1-2.8-2-4.3-2.9c-1.7-0.9-3.8-0.4-4.7,1.3c-0.9,1.7-0.4,3.8,1.3,4.7
			c1.2,0.7,2.3,1.4,3.4,2.3c0.6,0.5,1.4,0.8,2.2,0.8c1,0,2-0.5,2.7-1.3C361.9,341.6,361.7,339.4,360.1,338.2z"/>
	</g>
</g>
<g>
	<g>
		<path class="st1" d="M347.2,392.9c-0.3-1.9-2-3.2-3.9-3c-1.1,0.2-2.3,0.2-3.5,0.2l-0.7,0c-1.9,0-3.5,1.6-3.5,3.5
			c0,1.9,1.6,3.5,3.5,3.5c0,0,0,0,0,0l0.7,0c1.5,0,3-0.1,4.4-0.3C346.1,396.6,347.5,394.8,347.2,392.9z"/>
	</g>
</g>
<g>
	<g>
		<path class="st1" d="M362.6,383.1c-1.3-1.4-3.5-1.4-4.9-0.1c-1,0.9-2,1.8-3.1,2.6c-1.6,1.1-2,3.3-0.9,4.9c0.7,1,1.8,1.5,2.9,1.5
			c0.7,0,1.4-0.2,2-0.6c1.4-1,2.7-2.1,4-3.2C363.9,386.7,363.9,384.5,362.6,383.1z"/>
	</g>
</g>
<g>
	<g>
		<path class="st1" d="M369.4,366.2c-1.9-0.4-3.7,0.9-4.1,2.8c-0.3,1.3-0.6,2.6-1.1,3.9c-0.6,1.8,0.3,3.8,2.1,4.5
			c0.4,0.1,0.8,0.2,1.2,0.2c1.4,0,2.8-0.9,3.3-2.3c0.6-1.6,1-3.3,1.3-5C372.5,368.4,371.3,366.6,369.4,366.2z"/>
	</g>
</g>
<g>
	<g>
		<path class="st1" d="M371.4,355c-0.5-1.6-1.1-3.3-1.8-4.8c-0.8-1.7-2.9-2.5-4.6-1.7c-1.7,0.8-2.5,2.9-1.7,4.6
			c0.6,1.2,1,2.5,1.4,3.8c0.4,1.5,1.8,2.5,3.3,2.5c0.3,0,0.6,0,1-0.1C370.9,358.8,372,356.8,371.4,355z"/>
	</g>
</g>
<g>
	<g>
		<path class="st1" d="M322.6,331.1H318c-1.9,0-3.5,1.6-3.5,3.5c0,1.9,1.6,3.5,3.5,3.5h4.6c1.9,0,3.5-1.6,3.5-3.5
			C326.1,332.7,324.5,331.1,322.6,331.1z"/>
	</g>
</g>
<g>
	<g>
		<path class="st1" d="M306.9,390.3C306.9,390.3,306.9,390.3,306.9,390.3l-4.6,0c-1.9,0-3.5,1.6-3.5,3.5c0,1.9,1.6,3.5,3.5,3.5
			c0,0,0,0,0,0l4.6,0c1.9,0,3.5-1.6,3.5-3.5C310.4,391.9,308.9,390.3,306.9,390.3z"/>
	</g>
</g>
<g>
	<g>
		<path class="st1" d="M341.2,331.1c-0.5,0-1,0-1.5,0h-3.3c-1.9,0-3.5,1.6-3.5,3.5c0,1.9,1.6,3.5,3.5,3.5h3.3v0c0.4,0,0.8,0,1.2,0
			c0.1,0,0.1,0,0.2,0c1.9,0,3.4-1.5,3.5-3.3C344.6,332.8,343.1,331.2,341.2,331.1z"/>
	</g>
</g>
<g>
	<g>
		<path class="st1" d="M325.4,390.3C325.4,390.3,325.3,390.3,325.4,390.3l-4.6,0c-1.9,0-3.5,1.6-3.5,3.5c0,1.9,1.6,3.5,3.5,3.5
			c0,0,0,0,0,0l4.6,0c1.9,0,3.5-1.6,3.5-3.5C328.8,391.8,327.3,390.3,325.4,390.3z"/>
	</g>
</g>
</svg>
