<?xml version="1.0" encoding="utf-8"?>
<!-- Generator: Adobe Illustrator 21.0.0, SVG Export Plug-In . SVG Version: 6.00 Build 0)  -->
<svg version="1.1" id="Layer_1" xmlns="http://www.w3.org/2000/svg" xmlns:xlink="http://www.w3.org/1999/xlink" x="0px" y="0px"
	 viewBox="0 0 512 512" style="enable-background:new 0 0 512 512;" xml:space="preserve">
<style type="text/css">
	.st0{fill:#FFFFFF;}
</style>
<circle cx="241" cy="247" r="224"/>
<path class="st0" d="M205.9,208.2c4.1,0,7.8-1.7,10.5-4.6c4.1,2.9,9.1,4.6,14.4,4.6s10.4-1.7,14.4-4.6c2.7,2.9,6.4,4.6,10.5,4.6
	c7.9,0,14.2-6.4,14.2-14.2s-6.4-14.2-14.2-14.2h-0.3c-1.7-12.1-12.1-21.4-24.7-21.4s-22.9,9.3-24.7,21.4h-0.3
	c-7.9,0-14.2,6.4-14.2,14.2S198,208.2,205.9,208.2z M213.3,186.5c7.4-1.2,13.8-5.6,17.5-11.8c3.7,6.2,10.1,10.6,17.5,11.8
	c-1.5,8.3-8.8,14.5-17.5,14.5C222.1,201.1,214.8,194.8,213.3,186.5z M262.8,194c0,3.9-3.2,7.1-7.1,7.1c-2.1,0-4-0.9-5.3-2.4
	c2.6-3.4,4.4-7.4,5.1-11.8h0.3C259.6,186.8,262.8,190,262.8,194z M248.1,179.3c-6.6-1.5-11.8-6.7-13.3-13.3
	C241.4,167.5,246.6,172.7,248.1,179.3z M226.7,165.9c-1.5,6.6-6.7,11.8-13.3,13.3C215,172.7,220.2,167.5,226.7,165.9z M205.9,186.8
	h0.3c0.6,4.4,2.4,8.5,5.1,11.8c-1.3,1.5-3.3,2.4-5.3,2.4c-3.9,0-7.1-3.2-7.1-7.1S201.9,186.8,205.9,186.8z"/>
<path class="st0" d="M332,158.7l-42.7-21.4c-1.1-0.6-2.4-0.5-3.5,0.2c-1,0.6-1.7,1.8-1.7,3v42.6c0,0.1,0,0.1,0,0.2v41.5h-21.9
	c-1.6-5.5-6.6-9.5-12.6-9.5h-38c-5.9,0-10.9,4-12.5,9.4c-20.2-1.6-36.1-18.5-36.1-39c0-2-1.6-3.6-3.6-3.6c-2,0-3.6,1.6-3.6,3.6
	c0,24.3,18.9,44.3,42.7,46.1v72.5c0,2,1.6,3.6,3.6,3.6H213v61.3l-11.8,3.9c-1.9,0.6-2.9,2.6-2.3,4.5c0.5,1.5,1.9,2.4,3.4,2.4
	c0.4,0,0.8-0.1,1.1-0.2l14.2-4.7c1.5-0.5,2.4-1.8,2.4-3.4v-63.8h21.4v63.8c0,1.5,1,2.9,2.4,3.4l14.2,4.7c0.4,0.1,0.8,0.2,1.1,0.2
	c1.5,0,2.9-0.9,3.4-2.4c0.6-1.9-0.4-3.9-2.3-4.5l-11.8-3.9v-61.3h10.7c2,0,3.6-1.6,3.6-3.6v-72.4h32c5.9,0,10.7-4.8,10.7-10.7
	s-4.8-10.7-10.7-10.7h-3.6v-25.1l40.7-20.4c1.2-0.6,2-1.8,2-3.2C334,160.6,333.2,159.3,332,158.7z M255.7,228.4v57.5
	c-4.1-1.5-7.1-5.4-7.1-10.1v-53.4h1.2C253,222.4,255.7,225.1,255.7,228.4z M220.1,222.4h7.1v24.9c0,2,1.6,3.6,3.6,3.6
	c2,0,3.6-1.6,3.6-3.6v-24.9h7.1V258h-21.4V222.4z M211.8,222.4h1.2v53.4c0,4.6-3,8.6-7.1,10.1v-57.5
	C205.9,225.1,208.5,222.4,211.8,222.4z M205.9,300.7v-7.5c8.1-1.7,14.2-8.8,14.2-17.4v-10.7h21.4v10.7c0,8.6,6.1,15.8,14.2,17.4v7.5
	H205.9z M294.8,217.7c2,0,3.6,1.6,3.6,3.6c0,2-1.6,3.6-3.6,3.6h-3.6v-7.1H294.8z M291.3,177.5v-31.2l31.2,15.6L291.3,177.5z"/>
</svg>
