<?xml version="1.0" encoding="utf-8"?>
<!-- Generator: Adobe Illustrator 21.0.0, SVG Export Plug-In . SVG Version: 6.00 Build 0)  -->
<svg version="1.1" id="Layer_1" xmlns="http://www.w3.org/2000/svg" xmlns:xlink="http://www.w3.org/1999/xlink" x="0px" y="0px"
	 viewBox="0 0 504 576" style="enable-background:new 0 0 504 576;" xml:space="preserve">
<style type="text/css">
	.st0{fill:#F33E37;}
	.st1{fill:#FFFFFF;}
</style>
<circle class="st0" cx="252" cy="289" r="243.5"/>
<g>
	<g>
		<path class="st1" d="M336.1,250.2H159.7c-4.8,0-8.7,3.9-8.7,8.7c0,4.8,3.9,8.7,8.7,8.7h176.4c4.8,0,8.7-3.9,8.7-8.7
			C344.9,254.2,340.9,250.2,336.1,250.2z"/>
	</g>
</g>
<g>
	<g>
		<path class="st1" d="M336.1,316.4H159.7c-4.8,0-8.7,3.9-8.7,8.7s3.9,8.7,8.7,8.7h176.4c4.8,0,8.7-3.9,8.7-8.7
			S340.9,316.4,336.1,316.4z"/>
	</g>
</g>
<g>
	<g>
		<path class="st1" d="M226.8,184.1c-4.8-0.5-9.1,2.9-9.6,7.7l-22.1,198.5c-0.5,4.8,2.9,9.1,7.7,9.6c0.3,0,0.7,0.1,1,0.1
			c4.4,0,8.2-3.3,8.7-7.8l22.1-198.5C235.1,189,231.6,184.7,226.8,184.1z"/>
	</g>
</g>
<g>
	<g>
		<path class="st1" d="M293,184.1c-4.8-0.5-9.1,2.9-9.6,7.7l-22.1,198.5c-0.5,4.8,2.9,9.1,7.7,9.6c0.3,0,0.7,0.1,1,0.1
			c4.4,0,8.2-3.3,8.7-7.8l22.1-198.5C301.2,189,297.8,184.7,293,184.1z"/>
	</g>
</g>
</svg>
