<?xml version="1.0" encoding="utf-8"?>
<!-- Generator: Adobe Illustrator 21.0.0, SVG Export Plug-In . SVG Version: 6.00 Build 0)  -->
<svg version="1.1" id="Layer_1" xmlns="http://www.w3.org/2000/svg" xmlns:xlink="http://www.w3.org/1999/xlink" x="0px" y="0px"
	 viewBox="0 0 504 576" style="enable-background:new 0 0 504 576;" xml:space="preserve">
<style type="text/css">
	.st0{fill:#F33E37;}
	.st1{fill:#FFFFFF;}
</style>
<circle class="st0" cx="252" cy="289" r="243.5"/>
<path class="st1" d="M314.4,283.5l38-55.3c0.8-1.1,0.8-2.5,0.2-3.7c-0.6-1.2-1.8-1.9-3.2-1.9H242v-14.3c0-2-1.6-3.6-3.6-3.6h-75.3
	v-7.2c0-2-1.6-3.6-3.6-3.6c-2,0-3.6,1.6-3.6,3.6v10.8v103.9v93.2c0,2,1.6,3.6,3.6,3.6c2,0,3.6-1.6,3.6-3.6v-89.6h39.5
	c-2.3,3-3.7,6.7-3.7,10.8c0,9.9,8,17.9,17.9,17.9h132.6c1.3,0,2.6-0.7,3.2-1.9c0.6-1.2,0.5-2.6-0.2-3.7L314.4,283.5z M163.2,211.8
	h71.7v14.3v82.4h-17.9h-53.8V211.8z M216.9,337.3c-5.9,0-10.8-4.8-10.8-10.8c0-5.9,4.8-10.8,10.8-10.8h21.5c2,0,3.6-1.6,3.6-3.6
	v-82.4h100.7l-35.6,51.7c-0.8,1.2-0.8,2.8,0,4.1l35.6,51.7H216.9z"/>
</svg>
